<svg width="90" height="53" xmlns="http://www.w3.org/2000/svg" version="1.1">
 <g>
  <title>Layer 1</title>
  <g id="svg_1">
   <path d="m26.97655,1.01203a2.0002,2.0002 0 0 0 -1.78125,2.03125l0,46.71875a2.0002,2.0002 0 1 0 4,0l0,-46.71875a2.0002,2.0002 0 0 0 -2.21875,-2.03125zm36,0a2.0002,2.0002 0 0 0 -1.78125,2.03125l0,46.71875a2.0002,2.0002 0 1 0 4,0l0,-46.71875a2.0002,2.0002 0 0 0 -2.21875,-2.03125zm-47.8125,9.71875a2.0002,2.0002 0 0 0 -1.96875,2.03125l0,27.25a2.0002,2.0002 0 1 0 4,0l0,-27.25a2.0002,2.0002 0 0 0 -2.03125,-2.03125zm24,0a2.0002,2.0002 0 0 0 -1.96875,2.03125l0,27.25a2.0002,2.0002 0 1 0 4,0l0,-27.25a2.0002,2.0002 0 0 0 -2.03125,-2.03125zm36,0a2.0002,2.0002 0 0 0 -1.96875,2.03125l0,27.25a2.0002,2.0002 0 1 0 4,0l0,-27.25a2.0002,2.0002 0 0 0 -2.03125,-2.03125zm-72,7.78125a2.0002,2.0002 0 0 0 -1.96875,2.03125l0,11.6875a2.0002,2.0002 0 1 0 4,0l0,-11.6875a2.0002,2.0002 0 0 0 -2.03125,-2.03125zm48,0a2.0002,2.0002 0 0 0 -1.96875,2.03125l0,11.6875a2.0002,2.0002 0 1 0 4,0l0,-11.6875a2.0002,2.0002 0 0 0 -2.03125,-2.03125zm36,0a2.0002,2.0002 0 0 0 -1.96875,2.03125l0,11.6875a2.0002,2.0002 0 1 0 4,0l0,-11.6875a2.0002,2.0002 0 0 0 -2.03125,-2.03125zm-59.96875,41.46875c-2.50419,0 -4.53125,2.02706 -4.53125,4.53125c0,2.50419 2.02706,4.53125 4.53125,4.53125c2.50419,0 4.53125,-2.02706 4.53125,-4.53125c0,-2.50419 -2.02706,-4.53125 -4.53125,-4.53125zm-24,2.5a2.0002,2.0002 0 1 0 0,4l14.5,0a2.0002,2.0002 0 1 0 0,-4l-14.5,0zm33.625,0a2.0002,2.0002 0 1 0 0,4l50.375,0a2.0002,2.0002 0 1 0 0,-4l-50.375,0z" fill="#000000" stroke-width="4" id="svg_2"/>
  </g>
 </g>

</svg>