<svg xmlns="http://www.w3.org/2000/svg" xmlns:svg="http://www.w3.org/2000/svg" viewBox="0 0 48 60" version="1.1" xml:space="preserve" style="" x="0px" y="0px" clip-rule="evenodd" fill-rule="evenodd" stroke-linecap="round" stroke-linejoin="round" stroke-miterlimit="1.5"><g style="" transform="translate(-504,-72)" display="inline"><path style="color:#000000;" d="m 508,92 a 1,1 0 0 0 -1,1 v 6 a 1,1 0 0 0 1,1 1,1 0 0 0 1,-1 v -6 a 1,1 0 0 0 -1,-1 z" clip-rule="nonzero" fill="#000000" fill-rule="nonzero"/><path style="color:#000000;" d="m 512,86 a 1,1 0 0 0 -1,1 v 10 a 1,1 0 0 0 1,1 1,1 0 0 0 1,-1 V 87 a 1,1 0 0 0 -1,-1 z m 0,16 a 1,1 0 0 0 -1,1 v 2 a 1,1 0 0 0 1,1 1,1 0 0 0 1,-1 v -2 a 1,1 0 0 0 -1,-1 z" clip-rule="nonzero" fill="#000000" fill-rule="nonzero"/><path style="color:#000000;" d="m 516,89 a 1,1 0 0 0 -1,1 v 12 a 1,1 0 0 0 1,1 1,1 0 0 0 1,-1 V 90 a 1,1 0 0 0 -1,-1 z" clip-rule="nonzero" fill="#000000" fill-rule="nonzero"/><path style="color:#000000;" d="m 520,80 a 1,1 0 0 0 -1,1 v 30 a 1,1 0 0 0 1,1 1,1 0 0 0 1,-1 V 81 a 1,1 0 0 0 -1,-1 z" clip-rule="nonzero" fill="#000000" fill-rule="nonzero"/><path style="color:#000000;" d="m 524,87 a 1,1 0 0 0 -1,1 v 16 a 1,1 0 0 0 1,1 1,1 0 0 0 1,-1 V 88 a 1,1 0 0 0 -1,-1 z" clip-rule="nonzero" fill="#000000" fill-rule="nonzero"/><path style="color:#000000;" d="m 528,84 a 1,1 0 0 0 -1,1 v 22 a 1,1 0 0 0 1,1 1,1 0 0 0 1,-1 V 85 a 1,1 0 0 0 -1,-1 z" clip-rule="nonzero" fill="#000000" fill-rule="nonzero"/><path style="color:#000000;" d="m 532,90 a 1,1 0 0 0 -1,1 v 10 a 1,1 0 0 0 1,1 1,1 0 0 0 1,-1 V 91 a 1,1 0 0 0 -1,-1 z" clip-rule="nonzero" fill="#000000" fill-rule="nonzero"/><path style="color:#000000;" d="m 536,86.5 a 1,1 0 0 0 -1,1 v 17 a 1,1 0 0 0 1,1 1,1 0 0 0 1,-1 v -17 a 1,1 0 0 0 -1,-1 z" clip-rule="nonzero" fill="#000000" fill-rule="nonzero"/><path style="color:#000000;" d="m 540,77 a 1,1 0 0 0 -1,1 v 2 a 1,1 0 0 0 1,1 1,1 0 0 0 1,-1 v -2 a 1,1 0 0 0 -1,-1 z m 0,5 a 1,1 0 0 0 -1,1 v 31 a 1,1 0 0 0 1,1 1,1 0 0 0 1,-1 V 83 a 1,1 0 0 0 -1,-1 z" clip-rule="nonzero" fill="#000000" fill-rule="nonzero"/><path style="color:#000000;" d="m 544,82 a 1,1 0 0 0 -1,1 v 26 a 1,1 0 0 0 1,1 1,1 0 0 0 1,-1 V 83 a 1,1 0 0 0 -1,-1 z" clip-rule="nonzero" fill="#000000" fill-rule="nonzero"/><path style="color:#000000;" d="m 548,86.5 a 1,1 0 0 0 -1,1 v 17 a 1,1 0 0 0 1,1 1,1 0 0 0 1,-1 v -17 a 1,1 0 0 0 -1,-1 z" clip-rule="nonzero" fill="#000000" fill-rule="nonzero"/><path style="opacity:1;vector-effect:none;stroke-width:2;stop-color:#000000;stop-opacity:1" d="m 513,100 c 0,0.55228 -0.44772,1 -1,1 -0.55228,0 -1,-0.44772 -1,-1 0,-0.552285 0.44772,-1 1,-1 0.55228,0 1,0.447715 1,1 z"/></g><text x="0" y="63" fill="#000000" font-size="5px" font-weight="bold" font-family="'Helvetica Neue', Helvetica, Arial-Unicode, Arial, Sans-serif">Created by Alfan Zulkarnain</text><text x="0" y="68" fill="#000000" font-size="5px" font-weight="bold" font-family="'Helvetica Neue', Helvetica, Arial-Unicode, Arial, Sans-serif">from the Noun Project</text></svg>